<svg xmlns="http://www.w3.org/2000/svg" width="1120" height="544" viewBox="0 0 1120 544" role="img" aria-labelledby="title desc">
<title id="title">Warnet outcome percentages for BIP324-filtered notebook events</title>
<desc id="desc">Stacked percentage bars for notebook events with options, correct predictions, and percentage correct.</desc>
<rect width="100%" height="100%" fill="#ffffff"/>
<text x="28" y="36" font-family="Inter, Arial, sans-serif" font-size="24" font-weight="700" fill="#111827">Outcome percentages</text>
<text x="28" y="63" font-family="Inter, Arial, sans-serif" font-size="14" fill="#4b5563">BIP324-filtered view. Opcoes = TP + FP + FN; certas = TP.</text>
<rect x="28" y="82" width="14" height="14" rx="2" fill="#2f855a"/>
<text x="48" y="94" font-family="Inter, Arial, sans-serif" font-size="12" fill="#374151">TP</text>
<rect x="98" y="82" width="14" height="14" rx="2" fill="#dc2626"/>
<text x="118" y="94" font-family="Inter, Arial, sans-serif" font-size="12" fill="#374151">FP</text>
<rect x="168" y="82" width="14" height="14" rx="2" fill="#d97706"/>
<text x="188" y="94" font-family="Inter, Arial, sans-serif" font-size="12" fill="#374151">FN</text>
<text x="28" y="131" font-family="Inter, Arial, sans-serif" font-size="12" fill="#111827">BIP324 handshake</text>
<rect x="240.00" y="116" width="443.08" height="20" fill="#2f855a"/>
<rect x="683.08" y="116" width="36.92" height="20" fill="#dc2626"/>
<rect x="240" y="116" width="480" height="20" fill="none" stroke="#d1d5db"/>
<text x="734" y="130" font-family="Inter, Arial, sans-serif" font-size="11" fill="#374151">opcoes 13; certas 12 (92.3%); FP 7.7%; FN 0.0%</text>
<text x="28" y="185" font-family="Inter, Arial, sans-serif" font-size="12" fill="#111827">Block arrival</text>
<rect x="240.00" y="170" width="63.94" height="20" fill="#2f855a"/>
<rect x="303.94" y="170" width="16.95" height="20" fill="#dc2626"/>
<rect x="320.89" y="170" width="399.11" height="20" fill="#d97706"/>
<rect x="240" y="170" width="480" height="20" fill="none" stroke="#d1d5db"/>
<text x="734" y="184" font-family="Inter, Arial, sans-serif" font-size="11" fill="#374151">opcoes 1982; certas 264 (13.3%); FP 3.5%; FN 83.1%</text>
<text x="28" y="239" font-family="Inter, Arial, sans-serif" font-size="12" fill="#111827">Compact block arrival</text>
<rect x="240.00" y="224" width="59.61" height="20" fill="#2f855a"/>
<rect x="299.61" y="224" width="282.63" height="20" fill="#dc2626"/>
<rect x="582.24" y="224" width="137.76" height="20" fill="#d97706"/>
<rect x="240" y="224" width="480" height="20" fill="none" stroke="#d1d5db"/>
<text x="734" y="238" font-family="Inter, Arial, sans-serif" font-size="11" fill="#374151">opcoes 2432; certas 302 (12.4%); FP 58.9%; FN 28.7%</text>
<text x="28" y="293" font-family="Inter, Arial, sans-serif" font-size="12" fill="#111827">Large transaction</text>
<rect x="240.00" y="278" width="114.69" height="20" fill="#2f855a"/>
<rect x="354.69" y="278" width="333.15" height="20" fill="#dc2626"/>
<rect x="687.84" y="278" width="32.16" height="20" fill="#d97706"/>
<rect x="240" y="278" width="480" height="20" fill="none" stroke="#d1d5db"/>
<text x="734" y="292" font-family="Inter, Arial, sans-serif" font-size="11" fill="#374151">opcoes 791; certas 189 (23.9%); FP 69.4%; FN 6.7%</text>
<text x="28" y="347" font-family="Inter, Arial, sans-serif" font-size="12" fill="#111827">INV announcement</text>
<rect x="240.00" y="332" width="27.20" height="20" fill="#2f855a"/>
<rect x="267.20" y="332" width="0.13" height="20" fill="#dc2626"/>
<rect x="267.33" y="332" width="452.67" height="20" fill="#d97706"/>
<rect x="240" y="332" width="480" height="20" fill="none" stroke="#d1d5db"/>
<text x="734" y="346" font-family="Inter, Arial, sans-serif" font-size="11" fill="#374151">opcoes 3653; certas 207 (5.7%); FP 0.0%; FN 94.3%</text>
<text x="28" y="401" font-family="Inter, Arial, sans-serif" font-size="12" fill="#111827">Transaction relay exchange</text>
<rect x="240.00" y="386" width="11.93" height="20" fill="#2f855a"/>
<rect x="251.93" y="386" width="468.07" height="20" fill="#d97706"/>
<rect x="240" y="386" width="480" height="20" fill="none" stroke="#d1d5db"/>
<text x="734" y="400" font-family="Inter, Arial, sans-serif" font-size="11" fill="#374151">opcoes 2172; certas 54 (2.5%); FP 0.0%; FN 97.5%</text>
<text x="28" y="455" font-family="Inter, Arial, sans-serif" font-size="12" fill="#111827">Address response</text>
<rect x="240.00" y="440" width="480.00" height="20" fill="#dc2626"/>
<rect x="240" y="440" width="480" height="20" fill="none" stroke="#d1d5db"/>
<text x="734" y="454" font-family="Inter, Arial, sans-serif" font-size="11" fill="#374151">opcoes 19; certas 0 (0.0%); FP 100.0%; FN 0.0%</text>
<text x="28" y="524" font-family="Inter, Arial, sans-serif" font-size="12" fill="#6b7280">Fonte: analyze_warnet.ipynb / notebook_detection_scope_comparison.csv</text>
</svg>
